<svg id="visual" viewBox="0 0 900 600" width="900" height="600" xmlns="http://www.w3.org/2000/svg" xmlns:xlink="http://www.w3.org/1999/xlink" version="1.1"><path d="M0 7L75 13C150 19 300 31 450 31C600 31 750 19 825 13L900 7L900 0L825 0C750 0 600 0 450 0C300 0 150 0 75 0L0 0Z" fill="#303030"></path><path d="M0 55L75 65C150 75 300 95 450 92C600 89 750 63 825 50L900 37L900 5L825 11C750 17 600 29 450 29C300 29 150 17 75 11L0 5Z" fill="#1d1d1d"></path><path d="M0 151L75 158C150 165 300 179 450 167C600 155 750 117 825 98L900 79L900 35L825 48C750 61 600 87 450 90C300 93 150 73 75 63L0 53Z" fill="#0c0c0c"></path><path d="M0 193L75 197C150 201 300 209 450 196C600 183 750 149 825 132L900 115L900 77L825 96C750 115 600 153 450 165C300 177 150 163 75 156L0 149Z" fill="#0a0a0a"></path><path d="M0 241L75 257C150 273 300 305 450 315C600 325 750 313 825 307L900 301L900 113L825 130C750 147 600 181 450 194C300 207 150 199 75 195L0 191Z" fill="#090909"></path><path d="M0 439L75 443C150 447 300 455 450 448C600 441 750 419 825 408L900 397L900 299L825 305C750 311 600 323 450 313C300 303 150 271 75 255L0 239Z" fill="#090909"></path><path d="M0 475L75 487C150 499 300 523 450 533C600 543 750 539 825 537L900 535L900 395L825 406C750 417 600 439 450 446C300 453 150 445 75 441L0 437Z" fill="#0a0a0a"></path><path d="M0 523L75 530C150 537 300 551 450 560C600 569 750 573 825 575L900 577L900 533L825 535C750 537 600 541 450 531C300 521 150 497 75 485L0 473Z" fill="#0c0c0c"></path><path d="M0 577L75 578C150 579 300 581 450 582C600 583 750 583 825 583L900 583L900 575L825 573C750 571 600 567 450 558C300 549 150 535 75 528L0 521Z" fill="#1d1d1d"></path><path d="M0 601L75 601C150 601 300 601 450 601C600 601 750 601 825 601L900 601L900 581L825 581C750 581 600 581 450 580C300 579 150 577 75 576L0 575Z" fill="#303030"></path></svg>