<svg id="visual" viewBox="0 0 2560 1440" width="2560" height="1440" xmlns="http://www.w3.org/2000/svg" xmlns:xlink="http://www.w3.org/1999/xlink" version="1.1"><path d="M0 102L38.8 116.3C77.7 130.7 155.3 159.3 232.8 168.8C310.3 178.3 387.7 168.7 465.2 180.7C542.7 192.7 620.3 226.3 698 238.3C775.7 250.3 853.3 240.7 931 219.2C1008.7 197.7 1086.3 164.3 1163.8 169.2C1241.3 174 1318.7 217 1396.2 241C1473.7 265 1551.3 270 1629 250.8C1706.7 231.7 1784.3 188.3 1862 164.3C1939.7 140.3 2017.3 135.7 2094.8 162C2172.3 188.3 2249.7 245.7 2327.2 269.7C2404.7 293.7 2482.3 284.3 2521.2 279.7L2560 275L2560 0L2521.2 0C2482.3 0 2404.7 0 2327.2 0C2249.7 0 2172.3 0 2094.8 0C2017.3 0 1939.7 0 1862 0C1784.3 0 1706.7 0 1629 0C1551.3 0 1473.7 0 1396.2 0C1318.7 0 1241.3 0 1163.8 0C1086.3 0 1008.7 0 931 0C853.3 0 775.7 0 698 0C620.3 0 542.7 0 465.2 0C387.7 0 310.3 0 232.8 0C155.3 0 77.7 0 38.8 0L0 0Z" fill="#121417"></path><path d="M0 289L38.8 303.3C77.7 317.7 155.3 346.3 232.8 365.5C310.3 384.7 387.7 394.3 465.2 396.8C542.7 399.3 620.3 394.7 698 401.8C775.7 409 853.3 428 931 413.5C1008.7 399 1086.3 351 1163.8 360.7C1241.3 370.3 1318.7 437.7 1396.2 449.7C1473.7 461.7 1551.3 418.3 1629 377.5C1706.7 336.7 1784.3 298.3 1862 291.2C1939.7 284 2017.3 308 2094.8 329.7C2172.3 351.3 2249.7 370.7 2327.2 401.8C2404.7 433 2482.3 476 2521.2 497.5L2560 519L2560 273L2521.2 277.7C2482.3 282.3 2404.7 291.7 2327.2 267.7C2249.7 243.7 2172.3 186.3 2094.8 160C2017.3 133.7 1939.7 138.3 1862 162.3C1784.3 186.3 1706.7 229.7 1629 248.8C1551.3 268 1473.7 263 1396.2 239C1318.7 215 1241.3 172 1163.8 167.2C1086.3 162.3 1008.7 195.7 931 217.2C853.3 238.7 775.7 248.3 698 236.3C620.3 224.3 542.7 190.7 465.2 178.7C387.7 166.7 310.3 176.3 232.8 166.8C155.3 157.3 77.7 128.7 38.8 114.3L0 100Z" fill="#1e2125"></path><path d="M0 563L38.8 572.5C77.7 582 155.3 601 232.8 598.5C310.3 596 387.7 572 465.2 567.2C542.7 562.3 620.3 576.7 698 607.8C775.7 639 853.3 687 931 665.5C1008.7 644 1086.3 553 1163.8 543.5C1241.3 534 1318.7 606 1396.2 620.3C1473.7 634.7 1551.3 591.3 1629 567.3C1706.7 543.3 1784.3 538.7 1862 538.7C1939.7 538.7 2017.3 543.3 2094.8 569.7C2172.3 596 2249.7 644 2327.2 684.8C2404.7 725.7 2482.3 759.3 2521.2 776.2L2560 793L2560 517L2521.2 495.5C2482.3 474 2404.7 431 2327.2 399.8C2249.7 368.7 2172.3 349.3 2094.8 327.7C2017.3 306 1939.7 282 1862 289.2C1784.3 296.3 1706.7 334.7 1629 375.5C1551.3 416.3 1473.7 459.7 1396.2 447.7C1318.7 435.7 1241.3 368.3 1163.8 358.7C1086.3 349 1008.7 397 931 411.5C853.3 426 775.7 407 698 399.8C620.3 392.7 542.7 397.3 465.2 394.8C387.7 392.3 310.3 382.7 232.8 363.5C155.3 344.3 77.7 315.7 38.8 301.3L0 287Z" fill="#363c42"></path><path d="M0 1095L38.8 1107C77.7 1119 155.3 1143 232.8 1099.8C310.3 1056.7 387.7 946.3 465.2 917.7C542.7 889 620.3 942 698 985.2C775.7 1028.3 853.3 1061.7 931 1061.7C1008.7 1061.7 1086.3 1028.3 1163.8 1040.3C1241.3 1052.3 1318.7 1109.7 1396.2 1138.3C1473.7 1167 1551.3 1167 1629 1167C1706.7 1167 1784.3 1167 1862 1164.7C1939.7 1162.3 2017.3 1157.7 2094.8 1141C2172.3 1124.3 2249.7 1095.7 2327.2 1081.3C2404.7 1067 2482.3 1067 2521.2 1067L2560 1067L2560 791L2521.2 774.2C2482.3 757.3 2404.7 723.7 2327.2 682.8C2249.7 642 2172.3 594 2094.8 567.7C2017.3 541.3 1939.7 536.7 1862 536.7C1784.3 536.7 1706.7 541.3 1629 565.3C1551.3 589.3 1473.7 632.7 1396.2 618.3C1318.7 604 1241.3 532 1163.8 541.5C1086.3 551 1008.7 642 931 663.5C853.3 685 775.7 637 698 605.8C620.3 574.7 542.7 560.3 465.2 565.2C387.7 570 310.3 594 232.8 596.5C155.3 599 77.7 580 38.8 570.5L0 561Z" fill="#1e2125"></path><path d="M0 1441L38.8 1441C77.7 1441 155.3 1441 232.8 1441C310.3 1441 387.7 1441 465.2 1441C542.7 1441 620.3 1441 698 1441C775.7 1441 853.3 1441 931 1441C1008.7 1441 1086.3 1441 1163.8 1441C1241.3 1441 1318.7 1441 1396.2 1441C1473.7 1441 1551.3 1441 1629 1441C1706.7 1441 1784.3 1441 1862 1441C1939.7 1441 2017.3 1441 2094.8 1441C2172.3 1441 2249.7 1441 2327.2 1441C2404.7 1441 2482.3 1441 2521.2 1441L2560 1441L2560 1065L2521.2 1065C2482.3 1065 2404.7 1065 2327.2 1079.3C2249.7 1093.7 2172.3 1122.3 2094.8 1139C2017.3 1155.7 1939.7 1160.3 1862 1162.7C1784.3 1165 1706.7 1165 1629 1165C1551.3 1165 1473.7 1165 1396.2 1136.3C1318.7 1107.7 1241.3 1050.3 1163.8 1038.3C1086.3 1026.3 1008.7 1059.7 931 1059.7C853.3 1059.7 775.7 1026.3 698 983.2C620.3 940 542.7 887 465.2 915.7C387.7 944.3 310.3 1054.7 232.8 1097.8C155.3 1141 77.7 1117 38.8 1105L0 1093Z" fill="#121417"></path></svg>